<?xml version="1.0" encoding="utf-8"?>
<!-- Generator: Adobe Illustrator 28.4.1, SVG Export Plug-In . SVG Version: 6.00 Build 0)  -->
<svg version="1.0" id="katman_1" xmlns="http://www.w3.org/2000/svg" xmlns:xlink="http://www.w3.org/1999/xlink" x="0px" y="0px"
	 viewBox="0 0 841.9 595.3" style="enable-background:new 0 0 841.9 595.3;" xml:space="preserve">
<style type="text/css">
	.st0{fill:url(#SVGID_1_);}
	.st1{fill:#FFFFFF;}
	.st2{fill-rule:evenodd;clip-rule:evenodd;fill:#FFFFFF;}
</style>
<linearGradient id="SVGID_1_" gradientUnits="userSpaceOnUse" x1="164.3102" y1="122.0483" x2="583.5411" y2="541.2792" gradientTransform="matrix(1.125 0 0 -1.125 -0.1801 671.3622)">
	<stop  offset="0" style="stop-color:#FF9419"/>
	<stop  offset="0.43" style="stop-color:#FF021D"/>
	<stop  offset="0.99" style="stop-color:#E600FF"/>
</linearGradient>
<path class="st0" d="M346.1,52.9h281.5c21.1,0,38.2,17.1,38.2,38.2v281.5c0,20.2-8.1,39.7-22.4,54l-92.7,92.7
	c-14.3,14.3-33.7,22.4-54,22.4H215.2c-21.1,0-38.2-17.1-38.2-38.2V222c0-20.2,8.1-39.7,22.4-54l92.7-92.7
	C306.5,60.9,325.9,52.9,346.1,52.9z"/>
<path d="M574.2,144.5H222.9v351.3h351.3V144.5z"/>
<g>
	<path class="st1" d="M268.1,217c0.5-1,0.8-2.1,0.8-3.2v-38.7h12.5v39.6c0,3.3-0.7,6.2-2.1,8.7s-3.4,4.5-6,5.9
		c-2.6,1.4-5.5,2.1-8.9,2.1h-11V220h9.3c1.2,0,2.3-0.3,3.2-0.8S267.6,218,268.1,217z M253.4,442.4h122.2v22.9H253.4V442.4z
		 M303.8,208.5h26.5v-10.5h-26.5v-12h29.3v-10.9h-41.4v56.4h42.2v-10.8h-30.1V208.5z M355.1,186.3h-16.7v-11.2h45.8v11.2h-16.7v45.2
		h-12.4V186.3z"/>
	<path class="st2" d="M291.1,276.6c-1-0.5-2-0.9-3.1-1.2c3-0.8,5.6-2.8,7.2-5.4c1.2-2,1.8-4.3,1.8-6.6c0-2.9-0.8-5.4-2.3-7.7
		c-1.7-2.3-3.9-4.2-6.6-5.3c-2.8-1.3-6-1.9-9.6-1.9h-25.1v56.4H279c3.8,0,7.2-0.6,10.1-2c3-1.3,5.3-3.2,6.9-5.5
		c1.6-2.4,2.4-5,2.4-8.1c0-2.8-0.6-5.3-1.9-7.5C295.2,279.6,293.3,277.8,291.1,276.6z M265.5,258h11.1c1.5,0,2.9,0.3,4,0.8
		c1.1,0.5,2.1,1.3,2.7,2.4c0.6,1,1,2.2,1,3.6c0,1.4-0.3,2.7-1,3.7c-0.6,1.1-1.6,1.9-2.7,2.4c-1.2,0.6-2.5,0.9-4,0.9h-11.1V258z
		 M284.6,292.1c-0.7,1.1-1.8,2-3,2.5c-1.3,0.6-2.8,0.9-4.5,0.9h-11.6V281h11.6c1.7,0,3.1,0.3,4.5,0.9c1.3,0.6,2.3,1.5,3.1,2.6
		c0.7,1.1,1.1,2.4,1.1,3.9S285.3,291,284.6,292.1z M348.6,275.7c-1.7,2.7-4.1,4.9-7.3,6.3l0,0c-0.6,0.3-1.2,0.5-1.9,0.8l12.9,22H338
		l-11.4-20.5h-8.1v20.5H306v-56.4h24.7c4.1,0,7.7,0.7,10.8,2.2c3.1,1.5,5.5,3.6,7.2,6.3c1.7,2.7,2.5,5.7,2.5,9.3
		C351.1,269.9,350.3,273,348.6,275.7z M329.7,258.6h-11.2v15.6h11.2c1.8,0,3.2-0.3,4.5-1c1.3-0.6,2.3-1.5,3-2.7c0.7-1.2,1-2.6,1-4.2
		c0-1.6-0.3-2.9-1-4.1c-0.7-1.2-1.7-2.1-3-2.7C332.9,258.9,331.3,258.6,329.7,258.6z M373.6,248.5l-20.1,56.4h12.7l4-12.4H391
		l4.3,12.4h12.4l-20.6-56.4C387.1,248.5,373.6,248.5,373.6,248.5z M373,283l6.5-19.9l0.8-3.6l0.8,3.6l6.9,19.9
		C387.9,283,373,283,373,283z"/>
	<path class="st1" d="M413.4,248.5h12.9v56.4h-12.9C413.4,304.9,413.4,248.5,413.4,248.5z M473.3,286.6L449,248.5h-12.1v56.4h11.4
		v-38.2l24.1,38.2h12.3v-56.4h-11.4C473.3,248.5,473.3,286.6,473.3,286.6z M528.9,274.4c2.2,1.6,3.9,3.5,5.1,5.9h0
		c1.2,2.4,1.8,4.9,1.8,7.7c0,3.4-0.9,6.5-2.7,9.2c-1.8,2.7-4.3,4.8-7.6,6.3c-3.2,1.5-7,2.3-11.2,2.3c-4.2,0-7.9-0.8-11.1-2.3
		c-3.1-1.3-5.7-3.5-7.6-6.3c-1.9-2.8-2.8-6-2.8-9.3h12.5c0,1.5,0.4,2.7,1.2,3.9c0.8,1.1,1.8,1.9,3.2,2.6c1.4,0.6,3,0.9,4.7,0.9
		c1.7,0,3.2-0.3,4.5-0.8c1.2-0.5,2.2-1.3,3-2.3c0.7-1,1.1-2.1,1.1-3.4c0-1.5-0.5-2.9-1.5-3.9c-1-1-2.3-1.8-3.9-2.2l-10.2-2.1
		c-2.5-0.5-4.9-1.5-7-3c-2-1.5-3.6-3.3-4.7-5.5c-1.1-2.3-1.7-4.8-1.6-7.3c0-3.4,0.8-6.3,2.6-9c1.7-2.6,4.1-4.7,7.1-6.1
		c3.1-1.5,6.5-2.2,10.5-2.2c4,0,7.5,0.7,10.5,2.1c3.1,1.4,5.5,3.4,7.2,5.9s2.6,5.4,2.7,8.7h-12.5c0-1.2-0.3-2.3-1-3.2
		c-0.6-1-1.6-1.7-2.7-2.2c-1.2-0.5-2.6-0.8-4.1-0.8s-2.9,0.3-4,0.8c-1.1,0.4-2,1.2-2.7,2.1c-0.7,0.9-1,2-1,3.2
		c0,1.3,0.5,2.4,1.3,3.4c0.9,0.9,2.1,1.5,3.6,1.9l9.6,2C524.1,271.8,526.7,272.9,528.9,274.4L528.9,274.4z"/>
</g>
</svg>
