<?xml version="1.0" encoding="UTF-8"?>
<svg version="1.1" xmlns="http://www.w3.org/2000/svg" width="512" height="512">
<path d="M0 0 C1.02609375 0.20399414 2.0521875 0.40798828 3.109375 0.61816406 C40.90830967 8.31006813 75.90629601 22.99234892 107 46 C107.88558594 46.65234619 107.88558594 46.65234619 108.7890625 47.31787109 C118.49350769 54.53475062 127.30566441 62.60877895 136 71 C136.94101562 71.89976563 137.88203125 72.79953125 138.8515625 73.7265625 C144.72504639 79.45457311 149.93543947 85.55182242 155 92 C155.79148437 92.98613281 156.58296875 93.97226563 157.3984375 94.98828125 C183.65753868 128.2470482 199.69077165 166.632964 208 208 C208.27336182 209.33683838 208.27336182 209.33683838 208.55224609 210.70068359 C213.87644966 238.14814496 213.57947404 270.62974589 208 298 C207.79600586 299.02609375 207.59201172 300.0521875 207.38183594 301.109375 C199.68993187 338.90830967 185.00765108 373.90629601 162 405 C161.56510254 405.59039062 161.13020508 406.18078125 160.68212891 406.7890625 C153.46524938 416.49350769 145.39122105 425.30566441 137 434 C136.10023438 434.94101562 135.20046875 435.88203125 134.2734375 436.8515625 C128.54542689 442.72504639 122.44817758 447.93543947 116 453 C115.01386719 453.79148437 114.02773438 454.58296875 113.01171875 455.3984375 C79.7529518 481.65753868 41.367036 497.69077165 0 506 C-1.33683838 506.27336182 -1.33683838 506.27336182 -2.70068359 506.55224609 C-30.14814496 511.87644966 -62.62974589 511.57947404 -90 506 C-91.53914063 505.69400879 -91.53914063 505.69400879 -93.109375 505.38183594 C-130.90830967 497.68993187 -165.90629601 483.00765108 -197 460 C-197.59039062 459.56510254 -198.18078125 459.13020508 -198.7890625 458.68212891 C-208.49350769 451.46524938 -217.30566441 443.39122105 -226 435 C-226.94101563 434.10023438 -227.88203125 433.20046875 -228.8515625 432.2734375 C-234.72504639 426.54542689 -239.93543947 420.44817758 -245 414 C-245.79148438 413.01386719 -246.58296875 412.02773438 -247.3984375 411.01171875 C-273.65753868 377.7529518 -289.69077165 339.367036 -298 298 C-298.18224121 297.10877441 -298.36448242 296.21754883 -298.55224609 295.29931641 C-303.87644966 267.85185504 -303.57947404 235.37025411 -298 208 C-297.79600586 206.97390625 -297.59201172 205.9478125 -297.38183594 204.890625 C-289.68993187 167.09169033 -275.00765108 132.09370399 -252 101 C-251.34765381 100.11441406 -251.34765381 100.11441406 -250.68212891 99.2109375 C-243.46524938 89.50649231 -235.39122105 80.69433559 -227 72 C-226.10023438 71.05898437 -225.20046875 70.11796875 -224.2734375 69.1484375 C-218.54542689 63.27495361 -212.44817758 58.06456053 -206 53 C-205.01386719 52.20851562 -204.02773437 51.41703125 -203.01171875 50.6015625 C-169.7529518 24.34246132 -131.367036 8.30922835 -90 0 C-89.10877441 -0.18224121 -88.21754883 -0.36448242 -87.29931641 -0.55224609 C-59.85185504 -5.87644966 -27.37025411 -5.57947404 0 0 Z M-30 30 C-30 58.71 -30 87.42 -30 117 C-7.56 117 14.88 117 38 117 C29.64761811 91.94285432 17.19572018 69.26068708 -1 50 C-1.77085937 49.15308594 -2.54171875 48.30617188 -3.3359375 47.43359375 C-11.02894611 39.28000048 -19.30891557 33.56369481 -30 30 Z M-89.0625 49.75 C-94.70533943 55.42201106 -99.63564287 61.27241019 -104 68 C-104.65226562 68.99257812 -105.30453125 69.98515625 -105.9765625 71.0078125 C-113.23974501 82.42138502 -118.970747 94.54896211 -124.5 106.875 C-124.850625 107.65447998 -125.20125 108.43395996 -125.5625 109.23706055 C-127.35755239 112.97456145 -127.35755239 112.97456145 -128 117 C-105.56 117 -83.12 117 -60 117 C-60 88.29 -60 59.58 -60 30 C-70.39613537 30 -82.18872654 42.99302275 -89.0625 49.75 Z M-182 74 C-183.20076172 74.91265625 -183.20076172 74.91265625 -184.42578125 75.84375 C-198.85815995 86.99282159 -214.01013457 100.61476421 -224 116 C-224 116.33 -224 116.66 -224 117 C-203.21 117 -182.42 117 -161 117 C-157.37 107.76 -153.74 98.52 -150 89 C-143.56364469 74.38027864 -136.22303016 59.5213108 -126.32373047 46.85522461 C-124.80639245 45.10850019 -124.80639245 45.10850019 -125 43 C-143.48309713 43 -167.88735133 62.82661789 -182 74 Z M35 43 C36.26002719 46.46658197 37.70321687 49.13990471 39.9375 52.0625 C53.9672672 71.78001066 62.29944545 94.62714545 71 117 C91.79 117 112.58 117 134 117 C132.07191149 113.78651915 130.57692367 111.3163177 128.21484375 108.58203125 C127.42630005 107.66744141 127.42630005 107.66744141 126.62182617 106.734375 C126.06599854 106.10015625 125.5101709 105.4659375 124.9375 104.8125 C124.36040283 104.15121094 123.78330566 103.48992187 123.1887207 102.80859375 C101.72039403 78.41236346 74.78837456 59.00429727 45.0625 45.875 C44.06005249 45.43184448 44.06005249 45.43184448 43.03735352 44.97973633 C40.18313016 43.76328556 38.1364785 43 35 43 Z M-244 147 C-250.25108308 159.17809203 -250.25108308 159.17809203 -255.625 171.6875 C-255.90512939 172.42258789 -256.18525879 173.15767578 -256.47387695 173.91503906 C-261.25421418 186.78300067 -264.80087434 199.94701695 -267.3125 213.4375 C-267.47194092 214.28795898 -267.63138184 215.13841797 -267.7956543 216.01464844 C-269.08008565 223.39676352 -269.45833587 230.41670212 -270 238 C-240.63 238 -211.26 238 -181 238 C-180.01 225.46 -179.02 212.92 -178 200 C-176.10808384 184.74261161 -173.98437381 169.75339304 -170.734375 154.74609375 C-169.87174945 150.98201873 -169.87174945 150.98201873 -170 147 C-194.42 147 -218.84 147 -244 147 Z M-138 147 C-142.81096134 169.45115291 -147.18560054 191.55884878 -149.25 214.375 C-149.33024414 215.25905518 -149.41048828 216.14311035 -149.49316406 217.05395508 C-150.0630962 224.09659328 -150 230.87042819 -150 238 C-120.3 238 -90.6 238 -60 238 C-60 207.97 -60 177.94 -60 147 C-85.74 147 -111.48 147 -138 147 Z M-30 147 C-30 177.03 -30 207.06 -30 238 C-0.3 238 29.4 238 60 238 C60 228.45395614 59.709087 219.44128859 58.8125 210 C58.74819794 209.31590057 58.68389587 208.63180115 58.61764526 207.92697144 C56.64560779 187.26902185 52.75731312 167.21858074 48 147 C22.26 147 -3.48 147 -30 147 Z M80 147 C80.84302583 154.6038764 80.84302583 154.6038764 82.0859375 162.08984375 C86.84505281 187.36813183 89.15924418 212.22941858 91 238 C120.37 238 149.74 238 180 238 C179.12614033 225.61869625 179.12614033 225.61869625 177.3125 213.4375 C177.13734863 212.50333252 176.96219727 211.56916504 176.78173828 210.60668945 C172.44009243 188.36931041 165.01022245 166.81840041 154 147 C129.58 147 105.16 147 80 147 Z M-270 268 C-269.12614033 280.38130375 -269.12614033 280.38130375 -267.3125 292.5625 C-267.13734863 293.49666748 -266.96219727 294.43083496 -266.78173828 295.39331055 C-262.44009243 317.63068959 -255.01022245 339.18159959 -244 359 C-219.58 359 -195.16 359 -170 359 C-170.84302583 351.3961236 -170.84302583 351.3961236 -172.0859375 343.91015625 C-176.84505281 318.63186817 -179.15924418 293.77058142 -181 268 C-210.37 268 -239.74 268 -270 268 Z M-150 268 C-150 277.54604386 -149.709087 286.55871141 -148.8125 296 C-148.74819794 296.68409943 -148.68389587 297.36819885 -148.61764526 298.07302856 C-146.64560779 318.73097815 -142.75731312 338.78141926 -138 359 C-112.26 359 -86.52 359 -60 359 C-60 328.97 -60 298.94 -60 268 C-89.7 268 -119.4 268 -150 268 Z M-30 268 C-30 298.03 -30 328.06 -30 359 C-4.26 359 21.48 359 48 359 C52.81096134 336.54884709 57.18560054 314.44115122 59.25 291.625 C59.33024414 290.74094482 59.41048828 289.85688965 59.49316406 288.94604492 C60.0630962 281.90340672 60 275.12957181 60 268 C30.3 268 0.6 268 -30 268 Z M91 268 C90.01 280.54 89.02 293.08 88 306 C86.10808384 321.25738839 83.98437381 336.24660696 80.734375 351.25390625 C79.87174945 355.01798127 79.87174945 355.01798127 80 359 C104.42 359 128.84 359 154 359 C160.55998428 346.109037 160.55998428 346.109037 166.125 332.875 C166.45209961 331.9979541 166.77919922 331.1209082 167.11621094 330.21728516 C174.28215511 310.54065114 180 289.0584579 180 268 C150.63 268 121.26 268 91 268 Z M-224 389 C-222.07191149 392.21348085 -220.57692367 394.6836823 -218.21484375 397.41796875 C-217.68914795 398.02769531 -217.16345215 398.63742187 -216.62182617 399.265625 C-215.78808472 400.21695312 -215.78808472 400.21695312 -214.9375 401.1875 C-214.36040283 401.84878906 -213.78330566 402.51007813 -213.1887207 403.19140625 C-191.72039403 427.58763654 -164.78837456 446.99570273 -135.0625 460.125 C-134.06005249 460.56815552 -134.06005249 460.56815552 -133.03735352 461.02026367 C-130.18313016 462.23671444 -128.1364785 463 -125 463 C-126.26002719 459.53341803 -127.70321687 456.86009529 -129.9375 453.9375 C-143.9672672 434.21998934 -152.29944545 411.37285455 -161 389 C-181.79 389 -202.58 389 -224 389 Z M-128 389 C-119.64761811 414.05714568 -107.19572018 436.73931292 -89 456 C-88.22914063 456.84691406 -87.45828125 457.69382812 -86.6640625 458.56640625 C-78.97105389 466.71999952 -70.69108443 472.43630519 -60 476 C-60 447.29 -60 418.58 -60 389 C-82.44 389 -104.88 389 -128 389 Z M-30 389 C-30 417.71 -30 446.42 -30 476 C3.56723766 461.08122771 20.07781704 431.23343489 34.5 399.125 C34.85078613 398.34527832 35.20157227 397.56555664 35.56298828 396.76220703 C37.35765639 393.02501952 37.35765639 393.02501952 38 389 C15.56 389 -6.88 389 -30 389 Z M71 389 C67.535 397.91 67.535 397.91 64 407 C56.28696184 425.43181775 48.1518367 443.13244057 36.1796875 459.21484375 C34.81622489 460.92147507 34.81622489 460.92147507 35 463 C55.44440306 459.4694132 76.04744605 444.7114731 92 432 C92.87398438 431.31808594 93.74796875 430.63617188 94.6484375 429.93359375 C109.61619003 418.01645354 123.36814809 404.94777786 134 389 C113.21 389 92.42 389 71 389 Z " fill="#000000" transform="translate(301,3)"/>
</svg>
